<svg width="49" height="45" viewBox="0 0 49 45" fill="none" xmlns="http://www.w3.org/2000/svg">
<path d="M48.2433 22.1844C48.2433 34.1172 37.6009 43.8689 24.3716 43.8689C11.1424 43.8689 0.5 34.1172 0.5 22.1844C0.5 10.2517 11.1424 0.5 24.3716 0.5C37.6009 0.5 48.2433 10.2517 48.2433 22.1844Z" fill="white" stroke="white"/>
<path d="M37.3906 21.8721C37.3906 14.6856 31.5581 8.85303 24.3716 8.85303C17.1851 8.85303 11.3525 14.6856 11.3525 21.8721C11.3525 28.1733 15.8311 33.42 21.7678 34.6307V25.7778H19.164V21.8721H21.7678V18.6173C21.7678 16.1046 23.8118 14.0606 26.3244 14.0606H29.5792V17.9664H26.9754C26.2593 17.9664 25.6735 18.5522 25.6735 19.2683V21.8721H29.5792V25.7778H25.6735V34.826C32.2481 34.1751 37.3906 28.629 37.3906 21.8721Z" fill="black"/>
</svg>
