<svg width="48" height="44" viewBox="0 0 48 44" fill="none" xmlns="http://www.w3.org/2000/svg">
<path d="M18.6153 8.77942H29.3846C33.4871 8.77942 36.8205 12.1362 36.8205 16.2677V27.1128C36.8205 29.0988 36.037 31.0034 34.6425 32.4078C33.248 33.8121 31.3567 34.601 29.3846 34.601H18.6153C14.5128 34.601 11.1794 31.2442 11.1794 27.1128V16.2677C11.1794 14.2817 11.9629 12.377 13.3574 10.9727C14.7519 9.56836 16.6432 8.77942 18.6153 8.77942ZM18.3589 11.3616C17.1349 11.3616 15.9609 11.8513 15.0954 12.7229C14.2298 13.5946 13.7435 14.7768 13.7435 16.0095V27.371C13.7435 29.9402 15.8076 32.0189 18.3589 32.0189H29.641C30.8651 32.0189 32.039 31.5292 32.9046 30.6575C33.7701 29.7859 34.2564 28.6037 34.2564 27.371V16.0095C34.2564 13.4402 32.1923 11.3616 29.641 11.3616H18.3589ZM30.7307 13.2982C31.1558 13.2982 31.5634 13.4682 31.8639 13.7709C32.1645 14.0735 32.3333 14.484 32.3333 14.912C32.3333 15.3401 32.1645 15.7506 31.8639 16.0532C31.5634 16.3559 31.1558 16.5259 30.7307 16.5259C30.3057 16.5259 29.8981 16.3559 29.5975 16.0532C29.297 15.7506 29.1282 15.3401 29.1282 14.912C29.1282 14.484 29.297 14.0735 29.5975 13.7709C29.8981 13.4682 30.3057 13.2982 30.7307 13.2982ZM24 15.2348C25.7001 15.2348 27.3305 15.9149 28.5327 17.1256C29.7348 18.3362 30.4102 19.9781 30.4102 21.6902C30.4102 23.4023 29.7348 25.0443 28.5327 26.2549C27.3305 27.4655 25.7001 28.1456 24 28.1456C22.2999 28.1456 20.6694 27.4655 19.4672 26.2549C18.2651 25.0443 17.5897 23.4023 17.5897 21.6902C17.5897 19.9781 18.2651 18.3362 19.4672 17.1256C20.6694 15.9149 22.2999 15.2348 24 15.2348ZM24 17.817C22.9799 17.817 22.0016 18.225 21.2803 18.9514C20.559 19.6778 20.1538 20.663 20.1538 21.6902C20.1538 22.7175 20.559 23.7026 21.2803 24.429C22.0016 25.1554 22.9799 25.5635 24 25.5635C25.02 25.5635 25.9983 25.1554 26.7196 24.429C27.4409 23.7026 27.8461 22.7175 27.8461 21.6902C27.8461 20.663 27.4409 19.6778 26.7196 18.9514C25.9983 18.225 25.02 17.817 24 17.817Z" fill="white"/>
<path d="M47.75 22C47.75 33.9922 37.1377 43.75 24 43.75C10.8623 43.75 0.25 33.9922 0.25 22C0.25 10.0078 10.8623 0.25 24 0.25C37.1377 0.25 47.75 10.0078 47.75 22Z" stroke="white" stroke-width="0.5"/>
</svg>
