<svg width="48" height="44" viewBox="0 0 48 44" fill="none" xmlns="http://www.w3.org/2000/svg">
<path d="M47.5 22C47.5 33.8341 37.0205 43.5 24 43.5C10.9795 43.5 0.5 33.8341 0.5 22C0.5 10.1659 10.9795 0.5 24 0.5C37.0205 0.5 47.5 10.1659 47.5 22Z" fill="white" stroke="white"/>
<path d="M18.4359 9H29.2051C33.3077 9 36.641 12.3568 36.641 16.4883V27.3333C36.641 29.3193 35.8576 31.224 34.4631 32.6283C33.0686 34.0327 31.1773 34.8216 29.2051 34.8216H18.4359C14.3333 34.8216 11 31.4648 11 27.3333V16.4883C11 14.5023 11.7834 12.5976 13.1779 11.1933C14.5724 9.78894 16.4638 9 18.4359 9ZM18.1795 11.5822C16.9554 11.5822 15.7815 12.0718 14.9159 12.9435C14.0504 13.8151 13.5641 14.9974 13.5641 16.23V27.5915C13.5641 30.1608 15.6282 32.2394 18.1795 32.2394H29.4615C30.6856 32.2394 31.8596 31.7498 32.7251 30.8781C33.5907 30.0065 34.0769 28.8242 34.0769 27.5915V16.23C34.0769 13.6608 32.0128 11.5822 29.4615 11.5822H18.1795ZM30.5513 13.5188C30.9763 13.5188 31.3839 13.6888 31.6845 13.9915C31.985 14.2941 32.1538 14.7046 32.1538 15.1326C32.1538 15.5606 31.985 15.9711 31.6845 16.2738C31.3839 16.5764 30.9763 16.7465 30.5513 16.7465C30.1263 16.7465 29.7186 16.5764 29.4181 16.2738C29.1176 15.9711 28.9487 15.5606 28.9487 15.1326C28.9487 14.7046 29.1176 14.2941 29.4181 13.9915C29.7186 13.6888 30.1263 13.5188 30.5513 13.5188ZM23.8205 15.4554C25.5206 15.4554 27.1511 16.1355 28.3532 17.3461C29.5554 18.5568 30.2308 20.1987 30.2308 21.9108C30.2308 23.6229 29.5554 25.2648 28.3532 26.4755C27.1511 27.6861 25.5206 28.3662 23.8205 28.3662C22.1204 28.3662 20.4899 27.6861 19.2878 26.4755C18.0856 25.2648 17.4103 23.6229 17.4103 21.9108C17.4103 20.1987 18.0856 18.5568 19.2878 17.3461C20.4899 16.1355 22.1204 15.4554 23.8205 15.4554ZM23.8205 18.0376C22.8004 18.0376 21.8222 18.4456 21.1009 19.172C20.3796 19.8984 19.9744 20.8836 19.9744 21.9108C19.9744 22.938 20.3796 23.9232 21.1009 24.6496C21.8222 25.376 22.8004 25.784 23.8205 25.784C24.8406 25.784 25.8189 25.376 26.5402 24.6496C27.2614 23.9232 27.6667 22.938 27.6667 21.9108C27.6667 20.8836 27.2614 19.8984 26.5402 19.172C25.8189 18.4456 24.8406 18.0376 23.8205 18.0376Z" fill="black"/>
</svg>
