<svg width="24" height="24" viewBox="0 0 24 24" fill="none" xmlns="http://www.w3.org/2000/svg">
<path d="M12.1487 12.0296C13.4788 12.0296 14.557 10.9513 14.557 9.62122C14.557 8.29114 13.4788 7.21289 12.1487 7.21289C10.8186 7.21289 9.74036 8.29114 9.74036 9.62122C9.74036 10.9513 10.8186 12.0296 12.1487 12.0296Z" fill="white"/>
<path d="M17.5244 9.70342C17.5244 6.59842 15.1467 4.07275 12.2234 4.07275C9.30003 4.07275 6.92236 6.59842 6.92236 9.70475C6.92303 9.85975 6.9967 13.5744 11.2424 20.1198C11.3297 20.2993 11.4622 20.4532 11.6269 20.5662C11.7915 20.6792 11.9827 20.7475 12.1817 20.7644C12.795 20.7644 13.213 20.0891 13.2537 20.0204C17.5267 13.4714 17.5267 9.85109 17.5244 9.70342ZM12.2234 11.9714C11.7564 11.9714 11.2999 11.833 10.9117 11.5735C10.5234 11.3141 10.2208 10.9454 10.0421 10.5139C9.86339 10.0825 9.81663 9.6078 9.90773 9.14981C9.99883 8.69182 10.2237 8.27113 10.5539 7.94094C10.8841 7.61075 11.3048 7.38589 11.7628 7.29479C12.2207 7.20369 12.6955 7.25044 13.1269 7.42914C13.5583 7.60784 13.927 7.91046 14.1865 8.29872C14.4459 8.68698 14.5844 9.14346 14.5844 9.61042C14.5837 10.2364 14.3348 10.8366 13.8922 11.2792C13.4495 11.7219 12.8493 11.9708 12.2234 11.9714Z" fill="#D22F27"/>
<path d="M17.5244 9.70342C17.5244 6.59842 15.1467 4.07275 12.2234 4.07275C11.7882 4.07477 11.3551 4.1336 10.9351 4.24775C13.7334 4.39775 15.9684 6.85542 15.9684 9.86442C15.9704 10.0121 15.9704 13.6321 11.6974 20.1811C11.6397 20.2749 11.5744 20.3637 11.5021 20.4468C11.6754 20.6414 11.9211 20.7561 12.1821 20.7648C12.7951 20.7648 13.2131 20.0891 13.2537 20.0204C17.5267 13.4714 17.5267 9.85109 17.5244 9.70342Z" fill="#EA5A47"/>
<path d="M12.1817 20.7648C11.9827 20.7477 11.7916 20.6793 11.627 20.5663C11.4624 20.4532 11.3299 20.2994 11.2427 20.1198C6.99666 13.5744 6.923 9.86009 6.922 9.70475C6.922 6.59809 9.3 4.07275 12.2233 4.07275C15.1467 4.07275 17.5243 6.59842 17.5243 9.70342C17.5267 9.85142 17.5267 13.4714 13.2537 20.0201C13.213 20.0891 12.7947 20.7648 12.1817 20.7648Z" stroke="black" stroke-width="2" stroke-linecap="round" stroke-linejoin="round"/>
<path d="M12.2233 11.9715C11.7563 11.9715 11.2999 11.833 10.9116 11.5736C10.5233 11.3142 10.2207 10.9454 10.042 10.514C9.86333 10.0826 9.81657 9.60789 9.90767 9.1499C9.99877 8.69192 10.2236 8.27123 10.5538 7.94103C10.884 7.61084 11.3047 7.38598 11.7627 7.29488C12.2207 7.20378 12.6954 7.25053 13.1268 7.42923C13.5582 7.60793 13.927 7.91055 14.1864 8.29881C14.4458 8.68708 14.5843 9.14355 14.5843 9.61051C14.5837 10.2365 14.3347 10.8367 13.8921 11.2793C13.4495 11.7219 12.8493 11.9709 12.2233 11.9715Z" stroke="black" stroke-width="2" stroke-linecap="round" stroke-linejoin="round"/>
</svg>
